<svg xmlns="http://www.w3.org/2000/svg" xmlns:xlink="http://www.w3.org/1999/xlink" viewBox="0 0 32 40" version="1.1" x="0px" y="0px"><title>Atom / Icon / Avatar</title><desc>Created with Sketch.</desc><g stroke="none" stroke-width="1" fill="none" fill-rule="evenodd"><path d="M7.01970102,25.3997222 C7.32858844,20.7090345 11.2311485,17 16,17 C20.7688515,17 24.6714116,20.7090345 24.980299,25.3997222 C27.4571616,23.0327069 29,19.696528 29,16 C29,8.82029825 23.1797017,3 16,3 C8.82029825,3 3,8.82029825 3,16 C3,19.696528 4.54283841,23.0327069 7.01970102,25.3997222 Z M16,29 C18.9425175,29 21.7318044,28.0203071 23.9961531,26.2507885 C23.9987158,26.1673763 24,26.0837742 24,26 C24,21.581722 20.418278,18 16,18 C11.581722,18 8,21.581722 8,26 C8,26.0837742 8.00128421,26.1673763 8.0038469,26.2507885 C10.2681956,28.0203071 13.0574825,29 16,29 Z M16,30 C8.2680135,30 2,23.7319865 2,16 C2,8.2680135 8.2680135,2 16,2 C23.7319865,2 30,8.2680135 30,16 C30,23.7319865 23.7319865,30 16,30 Z M16,14 C18.209139,14 20,12.209139 20,10 C20,7.790861 18.209139,6 16,6 C13.790861,6 12,7.790861 12,10 C12,12.209139 13.790861,14 16,14 Z M16,15 C13.2385763,15 11,12.7614237 11,10 C11,7.23857625 13.2385763,5 16,5 C18.7614237,5 21,7.23857625 21,10 C21,12.7614237 18.7614237,15 16,15 Z" fill="#000000" fill-rule="nonzero"/></g><text x="0" y="47" fill="#000000" font-size="5px" font-weight="bold" font-family="'Helvetica Neue', Helvetica, Arial-Unicode, Arial, Sans-serif">Created by Guilherme Lima</text><text x="0" y="52" fill="#000000" font-size="5px" font-weight="bold" font-family="'Helvetica Neue', Helvetica, Arial-Unicode, Arial, Sans-serif">from the Noun Project</text></svg>