<svg xmlns="http://www.w3.org/2000/svg" xmlns:xlink="http://www.w3.org/1999/xlink" version="1.1" x="0px" y="0px" viewBox="0 0 1024 1280" style="enable-background:new 0 0 1024 1024;" xml:space="preserve"><g><g><path d="M687.85,519.5H336.15c-13.04,0-23.65-10.61-23.65-23.65V176.15c0-13.04,10.61-23.65,23.65-23.65h351.71    c13.04,0,23.65,10.61,23.65,23.65v319.71C711.5,508.89,700.89,519.5,687.85,519.5z M336.15,167.5c-4.77,0-8.65,3.88-8.65,8.65    v319.71c0,4.77,3.88,8.65,8.65,8.65h351.71c4.77,0,8.65-3.88,8.65-8.65V176.15c0-4.77-3.88-8.65-8.65-8.65H336.15z"/></g><g><path d="M560,279.5c-1.46,0-2.91-0.42-4.16-1.26L512,249.01l-43.84,29.23c-2.3,1.54-5.26,1.68-7.7,0.37s-3.96-3.85-3.96-6.61V160    c0-4.14,3.36-7.5,7.5-7.5h96c4.14,0,7.5,3.36,7.5,7.5v112c0,2.77-1.52,5.31-3.96,6.61C562.43,279.21,561.21,279.5,560,279.5z     M512,232.5c1.45,0,2.9,0.42,4.16,1.26l36.34,24.23V167.5h-81v90.49l36.34-24.23C509.1,232.92,510.55,232.5,512,232.5z"/></g><g><path d="M495.85,871.5H144.15c-13.04,0-23.65-10.61-23.65-23.65V528.15c0-13.04,10.61-23.65,23.65-23.65h351.71    c13.04,0,23.65,10.61,23.65,23.65v319.71C519.5,860.89,508.89,871.5,495.85,871.5z M144.15,519.5c-4.77,0-8.65,3.88-8.65,8.65    v319.71c0,4.77,3.88,8.65,8.65,8.65h351.71c4.77,0,8.65-3.88,8.65-8.65V528.15c0-4.77-3.88-8.65-8.65-8.65H144.15z"/></g><g><path d="M368,631.5c-1.46,0-2.91-0.42-4.16-1.26L320,601.01l-43.84,29.23c-2.3,1.54-5.26,1.68-7.7,0.37s-3.96-3.85-3.96-6.61V512    c0-4.14,3.36-7.5,7.5-7.5h96c4.14,0,7.5,3.36,7.5,7.5v112c0,2.77-1.52,5.31-3.96,6.61C370.43,631.21,369.21,631.5,368,631.5z     M320,584.5c1.45,0,2.9,0.42,4.16,1.26l36.34,24.23V519.5h-81v90.49l36.34-24.23C317.1,584.92,318.55,584.5,320,584.5z"/></g><g><path d="M879.85,871.5H528.15c-13.04,0-23.65-10.61-23.65-23.65V528.15c0-13.04,10.61-23.65,23.65-23.65h351.71    c13.04,0,23.65,10.61,23.65,23.65v319.71C903.5,860.89,892.89,871.5,879.85,871.5z M528.15,519.5c-4.77,0-8.65,3.88-8.65,8.65    v319.71c0,4.77,3.88,8.65,8.65,8.65h351.71c4.77,0,8.65-3.88,8.65-8.65V528.15c0-4.77-3.88-8.65-8.65-8.65H528.15z"/></g><g><path d="M752,631.5c-1.46,0-2.91-0.42-4.16-1.26L704,601.01l-43.84,29.23c-2.3,1.54-5.26,1.68-7.7,0.37s-3.96-3.85-3.96-6.61V512    c0-4.14,3.36-7.5,7.5-7.5h96c4.14,0,7.5,3.36,7.5,7.5v112c0,2.77-1.52,5.31-3.96,6.61C754.43,631.21,753.21,631.5,752,631.5z     M704,584.5c1.45,0,2.9,0.42,4.16,1.26l36.34,24.23V519.5h-81v90.49l36.34-24.23C701.1,584.92,702.55,584.5,704,584.5z"/></g></g><text x="0" y="1039" fill="#000000" font-size="5px" font-weight="bold" font-family="'Helvetica Neue', Helvetica, Arial-Unicode, Arial, Sans-serif">Created by shashank singh</text><text x="0" y="1044" fill="#000000" font-size="5px" font-weight="bold" font-family="'Helvetica Neue', Helvetica, Arial-Unicode, Arial, Sans-serif">from the Noun Project</text></svg>